PathFileType	4	(X/Y/Z)	Patient4_TMGait_0pt3_03_right_22.trc.trc
DataRate	CameraRate	NumFrames	NumMarkers	Units	OrigDataRate	OrigDataStartFrame	OrigNumFrames
53.030303030303	53.030303030303	5	33	mm	53.030303030303	18	       141
Frame#	Time	Sacral			L.Shoulder			Chest			R.Shoulder			Neck			R.ASIS			L.ASIS			R.Thigh.Superior			R.Thigh.Lateral			R.Thigh.Inferior			R.Patella			L.Thigh.Superior			L.Thigh.Lateral			L.Thigh.Inferior			L.Patella			L.Shank.Superior			L.Shank.Lateral			L.Shank.Inferior			R.Shank.Superior			R.Shank.Lateral			R.Shank.Inferior			R.Heel			R.Midfoot.Superior			R.Midfoot.Lateral			R.Toe			L.Heel			L.Midfoot.Lateral			L.Midfoot.Superior			L.Toe			L.Elbow			L.Wrist			R.Elbow			R.Wrist			
		X1	Y1	Z1	X2	Y2	Z2	X3	Y3	Z3	X4	Y4	Z4	X5	Y5	Z5	X6	Y6	Z6	X7	Y7	Z7	X8	Y8	Z8	X9	Y9	Z9	X10	Y10	Z10	X11	Y11	Z11	X12	Y12	Z12	X13	Y13	Z13	X14	Y14	Z14	X15	Y15	Z15	X16	Y16	Z16	X17	Y17	Z17	X18	Y18	Z18	X19	Y19	Z19	X20	Y20	Z20	X21	Y21	Z21	X22	Y22	Z22	X23	Y23	Z23	X24	Y24	Z24	X25	Y25	Z25	X26	Y26	Z26	X27	Y27	Z27	X28	Y28	Z28	X29	Y29	Z29	X30	Y30	Z30	X31	Y31	Z31	X32	Y32	Z32	X33	Y33	Z33	

18	41.410571428571	686.845123517945	1005.841676973437	422.906903640229	912.340792672042	1426.423640303235	261.719214803982	974.927963467700	1360.464907864754	442.208902888045	860.385377168553	1440.111625960496	593.761632179972	859.475596977426	1492.336168132027	412.796847515358	895.025737849426	945.338606585666	578.538294016503	923.112903149492	954.122875957247	303.727945913578	966.292052051787	763.682745783668	558.732367174694	913.728735452149	648.696533806855	633.652188365865	1001.993182845436	602.230899631231	558.497299240750	1029.006064586297	517.210840844555	581.993985018376	945.139114006381	732.313328946404	343.108339350546	854.635189961733	620.673693758155	274.653546366674	921.441832478227	539.291513171744	350.684075437311	913.814053301766	469.021952694076	361.128436542854	874.997673893252	399.260134983676	350.999036684603	776.092253133209	298.532705959626	289.511434514909	795.431043547416	183.207426829643	367.130246028432	1001.315175537472	429.436945070016	596.786892779739	931.927371667482	328.978481022530	666.720478352566	988.391976432739	230.884461267183	621.349154072057	872.751014739557	49.223424287269	605.455589410644	1039.694284173072	119.465048013165	642.179776028397	958.818368231993	46.167550770658	677.577629576030	1162.272536502991	79.756489561004	665.900916913032	644.198033331690	39.576583368622	396.817106838689	723.471476637339	35.792575975869	321.520624886624	806.195127354228	94.513001528965	355.256614694599	935.276363553043	40.308169956465	333.898528825088	1007.102168406020	1097.496420281172	132.828775484141	1254.125438929595	1023.679241774944	167.234276296501	681.253630807795	1141.096482172792	683.396029506429	629.337945744315	885.943537700618	694.467001744590	
19	41.429428571429	687.713205564580	1006.267087219136	426.062934255816	913.570116959196	1426.768563929534	265.688341550964	975.522985472051	1360.789809278557	446.308421071501	860.677652821334	1440.749663353162	597.451239654309	860.221327062389	1492.583170137699	416.570365979407	895.341258776461	945.105984348880	582.193456427843	923.993348071643	954.517993053885	307.294708623577	964.768675192838	761.834071870865	562.808332170910	910.075229057552	647.020171435259	636.824124199716	998.153984062942	600.443792148377	561.640906997164	1024.341010432530	517.317623345392	583.653420663812	942.489449914808	731.602917207524	345.932004757153	850.204507469712	621.611866290821	276.038243626240	915.283979866446	538.860579126753	351.645555320314	906.494760501790	469.019422966848	361.727630077975	868.284209354051	399.729859451069	351.340506717406	769.538807463127	298.919437825548	289.727562821794	789.310104201481	183.447512996466	367.186347475486	1000.414254140126	429.103442810938	598.480904724814	935.732945121789	325.593334923591	669.057297934308	995.580213213863	229.717886194450	622.541955742507	886.309060084693	44.582864752015	607.484340006665	1051.927182831897	119.158266712808	642.184467843369	973.500545896112	43.281413004619	678.323403669760	1176.111397756526	82.646139595178	663.743986233788	638.459306928175	39.468386333416	396.803092151295	717.712622240094	35.717066982732	321.509608656027	800.430118909075	94.503828895367	355.204748370897	929.501725082431	40.308498741449	333.910262504504	1010.485667987824	1099.360768663654	136.148159581926	1260.054646943822	1036.948512551713	171.392673766846	679.973727051226	1143.032948160026	685.810584339951	629.260552737205	887.256360305773	694.812123610299	
20	41.448285714286	688.664500830861	1006.158157662790	429.765083880183	914.480343846614	1426.754371381063	269.983606694810	976.173811175318	1360.692136600381	450.589450426098	861.246840755853	1440.797051182677	601.587963605515	860.946966797334	1492.415525092303	420.765572499015	896.060670262253	944.429251382113	585.923062215250	924.838145816793	954.559202349050	310.940401806701	963.976662069986	759.703928725513	566.823910642670	907.170193285248	644.977829248734	639.789399569695	995.095778183787	598.479352474913	564.517187509543	1020.183637741883	516.762367928872	585.076243587141	940.260508387229	730.712021043130	348.830580547237	846.271891001805	622.272994181332	277.677844845531	909.797857963853	538.254585205647	352.789948416050	899.920040506410	468.764867238924	362.529902380625	862.164827349371	399.923351726628	351.894299154962	763.371596250208	299.235768095851	290.124705883587	783.375757400692	183.545968994095	367.336891963283	999.307494630161	428.144414820386	599.967860653848	938.375837082016	322.440749423664	670.999617691521	1000.541109339698	228.395434472159	623.386920779901	895.850013604641	41.589339170300	609.016197024387	1060.634335178834	118.399233980556	641.808566391014	983.891226721910	41.191272913410	678.731917045515	1185.770913115643	83.736554360016	661.492026266294	632.730928017285	39.345341328893	396.795935652286	711.966355731198	35.645138407451	321.513244051527	794.666769090298	94.488900679228	355.191622887237	923.735451333346	40.290606558761	333.919785021196	1013.560404712232	1100.753393739809	139.860796635452	1265.152729782204	1049.581173937988	175.643080486074	680.239733062612	1143.472793541026	688.903303469705	631.997491652920	886.781674713803	696.022104477629	
21	41.467142857143	689.699311525029	1005.559581155872	433.977432477970	915.092945641372	1426.424458306698	274.616290183259	976.890437420208	1360.214734318973	455.071898734857	862.075308956750	1440.287560236604	606.181286215118	861.666714518050	1491.875989814181	425.395064729032	897.174734502234	943.358659432939	589.725937027370	925.675200725134	954.286157430715	314.673816026621	963.967564639824	757.417081049455	570.714734729490	905.143315154965	642.691400122496	642.502729541052	992.982462414582	596.461650692270	567.114313498670	1016.769163219174	515.635142988041	586.292945542773	938.519641895450	729.654115268969	351.778623041368	842.893191585845	622.661949939101	279.599897469272	905.069363148555	537.479053752200	354.139998935923	894.194090228917	468.254716763728	363.568636776914	856.705608038886	399.841782919771	352.690019195962	757.635149966300	299.505888965873	290.727118939392	777.654053244848	183.516027444947	367.591242270788	998.194947087072	426.627092537386	601.252504793890	939.985420938599	319.500444197059	672.551400968827	1003.441719072589	226.820917760643	623.899768098150	901.461967821673	39.924963251983	610.056825986342	1065.950087313143	117.061304509627	641.107771157268	990.097304172398	39.690915869947	678.875352726348	1191.496728744647	82.980470512790	659.318373073115	627.017404118956	39.235993144340	396.789140486035	706.241379366383	35.593120803132	321.532669593899	788.916553700022	94.479323784916	355.218354809490	917.986357753886	40.249528020448	333.925817846001	1016.239831996110	1101.663927880474	143.952985113672	1269.358357273877	1061.335685886908	179.950274759154	681.956513182382	1142.466242677244	692.689962325372	637.325410076709	884.678452360416	698.232409885468	
22	41.486000000000	690.818135286256	1004.569142939905	438.644823684397	915.456570394046	1425.857257871335	279.587839248047	977.687306658773	1359.436837894232	459.772698895226	863.146738397110	1439.308409904368	611.222330389169	862.401561084747	1491.047428725904	430.455033645169	898.652202477605	941.990191295660	593.615902177179	926.530355800552	953.770534607972	318.516121615943	964.733382216935	755.118140299715	574.439889651670	904.070795746398	640.312846406906	644.960238575650	991.903054556726	594.516590613562	569.450849804168	1014.273637913045	514.067707480012	587.352673361841	937.287506153282	728.467881428515	354.765287142808	840.077872706432	622.818759027799	281.820840467294	901.126115845795	536.566079687897	355.707878951489	889.359515695114	467.514284393067	364.857111280534	851.925333850438	399.521345555733	353.737835994671	752.337810016533	299.775341984763	291.546383985201	772.156990934788	183.394493654308	367.948617307021	997.262247988840	424.675672136647	602.350185503367	940.772332264854	316.780278796739	673.756273923856	1004.568270411174	224.975667835015	624.111867778851	903.498611337919	39.262483218562	610.652671223410	1068.204737373508	115.142183725682	640.146469317106	992.504232944147	38.615817342473	678.830553666381	1193.743666346682	80.556591510456	657.341611577768	621.321394191929	39.184639527049	396.775054271420	700.545155958579	35.584016588804	321.567834901973	783.195058722554	94.490321526888	355.280605043886	912.262655712429	40.182176466678	333.927121015908	1018.431421103551	1102.109626405279	148.410076018640	1272.630268846677	1071.982575095741	184.284032052608	685.025240565510	1140.144551498219	697.156622376596	645.013117765321	881.192262186389	701.552926620754	
